<?xml version="1.0" standalone="no"?>
<!DOCTYPE svg PUBLIC "-//W3C//DTD SVG 20010904//EN"
 "http://www.w3.org/TR/2001/REC-SVG-20010904/DTD/svg10.dtd">
<svg version="1.0" xmlns="http://www.w3.org/2000/svg"
 width="165.000000pt" height="165.000000pt" viewBox="0 0 165.000000 165.000000"
 preserveAspectRatio="xMidYMid meet">
<metadata>
Created by potrace 1.11, written by Peter Selinger 2001-2013
</metadata>
<g transform="translate(0.000000,165.000000) scale(0.100000,-0.100000)"
fill="#000000" stroke="none">
<path d="M27 1535 c-7 -17 4 -29 39 -44 52 -21 62 -57 69 -256 8 -225 34 -313
118 -399 93 -94 221 -138 437 -151 l25 -1 0 -245 c0 -271 -3 -287 -63 -322
-17 -10 -59 -21 -91 -24 -58 -6 -84 -23 -58 -40 17 -11 629 -11 644 0 22 16 2
37 -34 37 -75 0 -164 48 -172 92 -1 7 -5 122 -8 256 -4 230 -4 242 14 243 148
9 245 30 332 71 165 78 226 194 237 448 10 241 17 270 80 296 51 21 43 50 -11
46 -181 -14 -272 -118 -290 -334 -11 -133 -15 -173 -20 -198 -3 -14 -7 -34 -9
-45 -9 -43 -25 -72 -61 -108 -57 -57 -124 -83 -233 -91 l-43 -3 4 306 c2 168
6 315 9 325 9 37 58 75 107 83 25 4 49 8 54 9 4 1 18 2 31 3 19 1 23 5 19 21
-5 19 -14 20 -329 20 -319 0 -354 -4 -326 -32 6 -6 26 -12 44 -13 58 -3 102
-16 127 -36 44 -36 49 -73 50 -391 l2 -297 -43 4 c-107 9 -172 33 -224 81 -31
29 -63 80 -69 114 -9 49 -16 100 -20 150 -19 246 -46 320 -141 387 -48 34
-189 62 -197 38z"/>
</g>
</svg>
